<?xml version="1.0" standalone="yes"?>
<svg xmlns="http://www.w3.org/2000/svg" width="512" height="512">
<path style="fill:#ffffff; stroke:none;" d="M0 0L0 64L1 64C11.9669 16.618 63.9635 24 101 24L405 24C443.079 24 499.615 14.8126 511 64L512 64L512 0L0 0z"/>
<path style="fill:#010101; stroke:none;" d="M45 24.4283C-3.51099 31.3778 -18.9642 100.595 30 120.546C42.3199 125.566 55.9728 124 69 124L135 124L370 124L443 124C457.156 124 471.931 125.74 485 119.19C530.93 96.1687 513.969 30.1774 466 24.2863C441.714 21.3037 415.478 24 391 24L242 24L111 24C89.5626 24 66.2162 21.3889 45 24.4283z"/>
<path style="fill:#ffffff; stroke:none;" d="M0 85L0 246L1 246C8.31979 196.436 70.5233 206 106 206L414 206C448.225 206 504.04 198.874 511 246L512 246L512 85L511 85C498.843 137.523 430.953 124 391 124L122 124L66 124C48.6783 124 33.3749 124.657 19 113.331C8.80262 105.296 6.45102 95.2516 0 85z"/>
<path style="fill:#010101; stroke:none;" d="M42 206.464C-6.34656 215.007 -16.2657 284.058 31 302.536C43.6792 307.493 57.6672 306 71 306L137 306L371 306L442 306C457.602 306 472.729 307.239 487 299.737C529.399 277.447 514.444 212.793 469 206.3C443.376 202.639 414.9 206 389 206L229 206L104 206C84.1341 206 61.5579 203.008 42 206.464z"/>
<path style="fill:#ffffff; stroke:none;" d="M0 266L0 427L1 427C11.9655 379.624 64.2214 388 101 388L405 388C442.796 388 499.637 377.908 511 427L512 427L512 266L511 266C503.186 318.911 430.315 306 393 306L117 306C85.6778 306 39.832 315.045 15.0895 291.714C7.14803 284.225 4.9414 275.091 0 266z"/>
<path style="fill:#010101; stroke:none;" d="M40 388.465C-8.54505 397.201 -14.1184 467.82 32 484.617C44.7377 489.256 58.7004 488 72 488L138 488L367 488L441 488C455.307 488 470.775 489.481 484 482.88C525.389 462.22 519.462 395.283 471 388.3C445.076 384.565 416.208 388 390 388L226 388L102 388C82.1658 388 59.5154 384.952 40 388.465z"/>
<path style="fill:#ffffff; stroke:none;" d="M0 448L0 512L512 512L512 448L511 448C498.777 500.807 431.286 488 391 488L123 488L67 488C50.3427 488 33.9102 488.193 20 477.471C9.07298 469.048 6.81927 458.837 0 448z"/>
</svg>
